<?xml version="1.0" encoding="UTF-8"?>
<svg version="1.1" xmlns="http://www.w3.org/2000/svg" width="200" height="200">
<path d="M0 0 C66 0 132 0 200 0 C200 66 200 132 200 200 C134 200 68 200 0 200 C0 134 0 68 0 0 Z " fill="#143447" transform="translate(0,0)"/>
<path d="M0 0 C2.39502121 1.20946863 4.70794127 2.47021252 6.98828125 3.8828125 C6.98828125 4.5428125 6.98828125 5.2028125 6.98828125 5.8828125 C8.30828125 5.8828125 9.62828125 5.8828125 10.98828125 5.8828125 C10.65828125 7.2028125 10.32828125 8.5228125 9.98828125 9.8828125 C10.64828125 9.8828125 11.30828125 9.8828125 11.98828125 9.8828125 C13.8985036 16.20846685 14.32696179 24.16104979 12.08203125 30.40234375 C8.94103773 35.66753481 4.78768011 39.54673577 -0.76171875 42.1953125 C-7.62634931 43.64744589 -13.89895622 43.83387492 -20.125 40.28515625 C-24.85424803 36.77004229 -29.75053351 31.76834361 -31.01171875 25.8828125 C-32.00301763 18.21401425 -30.54895393 12.1893523 -26.01171875 5.8828125 C-18.72797685 -1.10334462 -9.74807617 -3.61601788 0 0 Z " fill="#233042" transform="translate(109.01171875,65.1171875)"/>
<path d="M0 0 C-0.04382813 1.02480469 -0.08765625 2.04960938 -0.1328125 3.10546875 C-0.17489791 7.25909367 0.03042468 10.93990334 1 15 C4.00822777 17.80409802 7.12757295 18.79373279 11 20 C11.99 20.66 12.98 21.32 14 22 C11.80367091 23.68485519 9.59520363 25.34713211 7.375 27 C6.75753906 27.47695312 6.14007813 27.95390625 5.50390625 28.4453125 C2.4790948 30.67412094 0.58608396 31.92199859 -3.19921875 32.42578125 C-5.89967869 32.01525108 -7.78941375 31.46552201 -10.1875 30.1875 C-11.16783203 29.68283203 -11.16783203 29.68283203 -12.16796875 29.16796875 C-15.60673399 26.97566426 -16.77829841 25.87097055 -17.8203125 21.77734375 C-18.46144834 13.69738819 -18.46144834 13.69738819 -17 10 C-13.34487718 5.77744884 -5.7001924 0 0 0 Z " fill="#F70809" transform="translate(103,69)"/>
<path d="M0 0 C2.18359375 1.10546875 2.18359375 1.10546875 5.43359375 3.10546875 C5.43359375 4.09546875 5.43359375 5.08546875 5.43359375 6.10546875 C-0.31640625 4.23046875 -0.31640625 4.23046875 -2.56640625 3.10546875 C-8.8370632 2.50935511 -14.03021802 2.84888744 -19.56640625 6.10546875 C-24.00640422 10.21482857 -26.32324932 14.47937386 -26.87890625 20.48046875 C-26.34650553 26.65631712 -23.9481297 31.7237453 -19.56640625 36.10546875 C-14.28793082 39.10695478 -9.51486365 40.01511258 -3.56640625 39.10546875 C2.28944925 37.27422065 5.50871379 34.60424308 8.43359375 29.10546875 C9.8819894 24.7602818 9.40015255 20.58559832 9.2734375 16.0390625 C9.43359375 13.10546875 9.43359375 13.10546875 11.43359375 11.10546875 C14.84258783 16.21895988 14.07448973 22.14579684 13.43359375 28.10546875 C11.0606829 34.68444047 5.91713435 39.44286983 -0.31640625 42.41796875 C-7.18103681 43.87010214 -13.45364372 44.05653117 -19.6796875 40.5078125 C-24.40893553 36.99269854 -29.30522101 31.99099986 -30.56640625 26.10546875 C-31.55770513 18.4366705 -30.10364143 12.41200855 -25.56640625 6.10546875 C-18.47640438 -0.69486378 -9.5912395 -3.34306521 0 0 Z " fill="#EA0A0C" transform="translate(108.56640625,64.89453125)"/>
<path d="M0 0 C2.81276294 0.37503506 5.51509426 0.86530396 8.25 1.625 C10.0976086 2.2114853 10.0976086 2.2114853 12 1 C12 1.66 12 2.32 12 3 C13.32 3 14.64 3 16 3 C15.67 4.32 15.34 5.64 15 7 C15.66 7 16.32 7 17 7 C16.67 7.66 16.34 8.32 16 9 C14.95023036 12.14930893 14.89868405 14.38814456 14.9375 17.6875 C14.94652344 18.68136719 14.95554687 19.67523438 14.96484375 20.69921875 C14.97644531 21.45847656 14.98804687 22.21773437 15 23 C14.34 23.33 13.68 23.66 13 24 C13 23.34 13 22.68 13 22 C12.34 21.9175 11.68 21.835 11 21.75 C6.9591873 20.73979683 2.01230249 19.01230249 -1 16 C-1.09975032 13.48863896 -1.13882183 11.01096585 -1.125 8.5 C-1.12886719 7.79746094 -1.13273437 7.09492187 -1.13671875 6.37109375 C-1.12661378 1.12661378 -1.12661378 1.12661378 0 0 Z " fill="#1F3143" transform="translate(104,68)"/>
<path d="M0 0 C0.7582585 4.21254721 1.02970756 7.819999 0 12 C-3.54292648 15.51100823 -8.7643144 20 -14 20 C-14.7582585 15.78745279 -15.02970756 12.180001 -14 8 C-10.45707352 4.48899177 -5.2356856 0 0 0 Z " fill="#3B2C3C" transform="translate(101,72)"/>
<path d="M0 0 C2.29171548 10.79623191 2.29171548 10.79623191 1 16 C-2.09766262 20.42843218 -7.1265638 22.96469022 -12 25 C-14.9296875 25.21875 -14.9296875 25.21875 -17 25 C-17.90275113 19.98471596 -18.76308025 14.88926568 -17 10 C-13.39375077 5.76274887 -5.66963316 0 0 0 Z M-16 11 C-17.02970756 15.180001 -16.7582585 18.78745279 -16 23 C-8.29366864 20.10926533 -8.29366864 20.10926533 -2 15 C-1.22556633 10.89759462 -1.45954735 7.12345357 -2 3 C-7.2356856 3 -12.45707352 7.48899177 -16 11 Z " fill="#C41216" transform="translate(103,69)"/>
<path d="M0 0 C0.99 0 1.98 0 3 0 C3 4.62 3 9.24 3 14 C0.69 14 -1.62 14 -4 14 C-6 11 -6 11 -5.75 8.4375 C-5 6 -5 6 -3 4 C-2.01 4 -1.02 4 0 4 C0 2.68 0 1.36 0 0 Z " fill="#9EACB4" transform="translate(56,111)"/>
<path d="M0 0 C1.32 0 2.64 0 4 0 C4.67354499 1.43429001 5.33859701 2.87257057 6 4.3125 C6.556875 5.51326172 6.556875 5.51326172 7.125 6.73828125 C8 9 8 9 8 12 C7.01 12 6.02 12 5 12 C5 11.34 5 10.68 5 10 C3.02 10 1.04 10 -1 10 C-1 10.66 -1 11.32 -1 12 C-1.99 12 -2.98 12 -4 12 C-3.33501617 7.61110675 -1.81242323 4.0188515 0 0 Z " fill="#A9B5BD" transform="translate(31,113)"/>
<path d="M0 0 C0 0.99 0 1.98 0 3 C-0.99 3.495 -0.99 3.495 -2 4 C-2.65213292 6.02463255 -2.65213292 6.02463255 -3 8 C-2.21625 7.67 -1.4325 7.34 -0.625 7 C2 6 2 6 4 6 C4.66 4.68 5.32 3.36 6 2 C6.66 2 7.32 2 8 2 C8.33 1.34 8.66 0.68 9 0 C9.3671875 2.7265625 9.3671875 2.7265625 9 6 C6.4453125 8.3359375 6.4453125 8.3359375 3.125 10.375 C2.03445312 11.06335938 0.94390625 11.75171875 -0.1796875 12.4609375 C-3 14 -3 14 -5 14 C-5.08082094 12.04233719 -5.13910778 10.08373272 -5.1875 8.125 C-5.22230469 7.03445312 -5.25710937 5.94390625 -5.29296875 4.8203125 C-5.19628906 3.88960938 -5.09960938 2.95890625 -5 2 C-2 0 -2 0 0 0 Z " fill="#2C2F40" transform="translate(92,78)"/>
<path d="M0 0 C3.29714793 0.32971479 4.6226839 0.6226839 7 3 C6.43181818 8.56818182 6.43181818 8.56818182 5 10 C2 10.125 2 10.125 -1 10 C-2 9 -2 9 -2.1875 5.5625 C-2 2 -2 2 0 0 Z " fill="#D0D7DB" transform="translate(87,115)"/>
<path d="M0 0 C0.99 0 1.98 0 3 0 C3.33 1.98 3.66 3.96 4 6 C5.32 5.67 6.64 5.34 8 5 C7.79375 5.7425 7.5875 6.485 7.375 7.25 C6.95591249 10.32330841 7.38050989 11.42786866 9 14 C5.125 13.125 5.125 13.125 4 12 C3.67 12.66 3.34 13.32 3 14 C2.01 14 1.02 14 0 14 C0 9.38 0 4.76 0 0 Z " fill="#D3D9DD" transform="translate(164,111)"/>
<path d="M0 0 C2.875 -0.125 2.875 -0.125 6 0 C8 2 8 2 8.1953125 3.9453125 C8.13020833 5.96354167 8.06510417 7.98177083 8 10 C5.36 10 2.72 10 0 10 C0 6.66666667 0 3.33333333 0 0 Z " fill="#CAD2D7" transform="translate(146,115)"/>
<path d="M0 0 C3.0625 0.1875 3.0625 0.1875 5.0625 2.1875 C5.33241906 4.87589385 5.14987357 7.47891936 5.0625 10.1875 C4.0725 10.1875 3.0825 10.1875 2.0625 10.1875 C2.0625 7.8775 2.0625 5.5675 2.0625 3.1875 C1.0725 3.1875 0.0825 3.1875 -0.9375 3.1875 C-0.9375 5.4975 -0.9375 7.8075 -0.9375 10.1875 C-1.9275 10.1875 -2.9175 10.1875 -3.9375 10.1875 C-3.96439216 8.70843108 -3.98384621 7.22922517 -4 5.75 C-4.01160156 4.92628906 -4.02320313 4.10257812 -4.03515625 3.25390625 C-3.87957366 -0.03822136 -3.344775 0.21349628 0 0 Z " fill="#BDC6CC" transform="translate(43.9375,114.8125)"/>
<path d="M0 0 C2.625 0.375 2.625 0.375 5 1 C5.33 2.65 5.66 4.3 6 6 C4.35 6.33 2.7 6.66 1 7 C2.32 7.33 3.64 7.66 5 8 C5 8.66 5 9.32 5 10 C2.125 10.1875 2.125 10.1875 -1 10 C-3 7 -3 7 -2.75 4.4375 C-2 2 -2 2 0 0 Z " fill="#DBE0E4" transform="translate(121,115)"/>
<path d="M0 0 C3.5 0.3125 3.5 0.3125 7 1 C8.4783226 3.95664519 8.06032783 6.74229737 8 10 C7.01 10 6.02 10 5 10 C5 7.69 5 5.38 5 3 C4.01 3 3.02 3 2 3 C2 5.31 2 7.62 2 10 C1.01 10 0.02 10 -1 10 C-1.02689216 8.52093108 -1.04634621 7.04172517 -1.0625 5.5625 C-1.07410156 4.73878906 -1.08570312 3.91507812 -1.09765625 3.06640625 C-1 1 -1 1 0 0 Z " fill="#C7CFD4" transform="translate(96,115)"/>
<path d="M0 0 C2.625 0.375 2.625 0.375 5 1 C5.33 2.65 5.66 4.3 6 6 C4.35 6 2.7 6 1 6 C1 6.66 1 7.32 1 8 C2.65 8 4.3 8 6 8 C6 8.66 6 9.32 6 10 C3.69 10 1.38 10 -1 10 C-2.38125018 7.23749964 -2.19079306 5.05268901 -2 2 C-1.34 1.34 -0.68 0.68 0 0 Z " fill="#DCE1E4" transform="translate(63,115)"/>
<path d="M0 0 C-1.22527029 4.05281712 -2.69880494 7.44360764 -5 11 C-5.66 10.01 -6.32 9.02 -7 8 C-8.64155367 6.22165019 -9.82635771 5.08682115 -12 4 C-12 3.34 -12 2.68 -12 2 C-10.7625 1.67 -9.525 1.34 -8.25 1 C-7.55390625 0.814375 -6.8578125 0.62875 -6.140625 0.4375 C-4 0 -4 0 0 0 Z " fill="#ED0A0B" transform="translate(120,71)"/>
<path d="M0 0 C0.66 0 1.32 0 2 0 C2.12375 0.969375 2.2475 1.93875 2.375 2.9375 C2.684375 4.4534375 2.684375 4.4534375 3 6 C3.66 6.33 4.32 6.66 5 7 C5 4.69 5 2.38 5 0 C5.99 0 6.98 0 8 0 C8 2.97 8 5.94 8 9 C5.66705225 9.04241723 3.33297433 9.04092937 1 9 C0 8 0 8 -0.09765625 6.15234375 C-0.06510417 4.1015625 -0.03255208 2.05078125 0 0 Z " fill="#CED5DA" transform="translate(129,116)"/>
<path d="M0 0 C1.32 0 2.64 0 4 0 C4 0.66 4 1.32 4 2 C3.01 2 2.02 2 1 2 C1 2.99 1 3.98 1 5 C1.99 5 2.98 5 4 5 C4 5.66 4 6.32 4 7 C3.01 7 2.02 7 1 7 C1 9.31 1 11.62 1 14 C0.01 14 -0.98 14 -2 14 C-2.05389087 12.04196493 -2.09274217 10.08351091 -2.125 8.125 C-2.14820313 7.03445312 -2.17140625 5.94390625 -2.1953125 4.8203125 C-2 2 -2 2 0 0 Z " fill="#CED5D9" transform="translate(141,111)"/>
<path d="M0 0 C3.3 0 6.6 0 10 0 C10 0.66 10 1.32 10 2 C8.68 2 7.36 2 6 2 C6 5.3 6 8.6 6 12 C5.01 12 4.02 12 3 12 C3 8.7 3 5.4 3 2 C2.01 2 1.02 2 0 2 C0 1.34 0 0.68 0 0 Z " fill="#D6DCE0" transform="translate(109,113)"/>
<path d="M0 0 C1.67542976 0.28604898 3.34385343 0.61781233 5 1 C5 1.66 5 2.32 5 3 C4.01 3.33 3.02 3.66 2 4 C2.99 4.66 3.98 5.32 5 6 C4.67 7.32 4.34 8.64 4 10 C2.02 10 0.04 10 -2 10 C-2 9.34 -2 8.68 -2 8 C-1.01 7.67 -0.02 7.34 1 7 C0.01 6.34 -0.98 5.68 -2 5 C-1.125 1.125 -1.125 1.125 0 0 Z " fill="#C0C9CE" transform="translate(78,115)"/>
<path d="M0 0 C0.99 0 1.98 0 3 0 C3.33 4.62 3.66 9.24 4 14 C2.68 13.67 1.36 13.34 0 13 C0 8.71 0 4.42 0 0 Z " fill="#D4DADE" transform="translate(71,111)"/>
<path d="M0 0 C0 0.99 0 1.98 0 3 C-1.32 3 -2.64 3 -4 3 C-3.73323796 4.98491642 -3.73323796 4.98491642 -3 7 C-2.01 7.33 -1.02 7.66 0 8 C0 8.66 0 9.32 0 10 C-2.375 10.125 -2.375 10.125 -5 10 C-7 8 -7 8 -7.3125 5.5625 C-7 3 -7 3 -5.75 1.1875 C-4 0 -4 0 0 0 Z " fill="#C2CBD0" transform="translate(162,115)"/>
<path d="M0 0 C1.32 0 2.64 0 4 0 C4.67354499 1.43429001 5.33859701 2.87257057 6 4.3125 C6.556875 5.51326172 6.556875 5.51326172 7.125 6.73828125 C8 9 8 9 8 12 C7.01 12 6.02 12 5 12 C5 11.01 5 10.02 5 9 C4.34 8.67 3.68 8.34 3 8 C3 6.35 3 4.7 3 3 C2.01 3.33 1.02 3.66 0 4 C0 2.68 0 1.36 0 0 Z " fill="#DADFE3" transform="translate(31,113)"/>
<path d="M0 0 C-4.29 2.97 -8.58 5.94 -13 9 C-13.66 8.67 -14.32 8.34 -15 8 C-4.85454545 -2.42727273 -4.85454545 -2.42727273 0 0 Z " fill="#8A1D26" transform="translate(104,85)"/>
<path d="M0 0 C0 2.31 0 4.62 0 7 C-0.99 7.495 -0.99 7.495 -2 8 C-2 7.34 -2 6.68 -2 6 C-3.32 5.67 -4.64 5.34 -6 5 C-6 3.68 -6 2.36 -6 1 C-1.125 0 -1.125 0 0 0 Z " fill="#274456" transform="translate(164,117)"/>
<path d="M0 0 C0.33 0 0.66 0 1 0 C1 2.97 1 5.94 1 9 C-0.99954746 9.04254356 -3.00041636 9.04080783 -5 9 C-6 8 -6 8 -6.0625 5.4375 C-6.041875 4.633125 -6.02125 3.82875 -6 3 C-5.34 2.67 -4.68 2.34 -4 2 C-3.8453125 2.9590625 -3.8453125 2.9590625 -3.6875 3.9375 C-3.460625 4.618125 -3.23375 5.29875 -3 6 C-2.01 6.33 -1.02 6.66 0 7 C0 4.69 0 2.38 0 0 Z " fill="#E3E8EB" transform="translate(57,116)"/>
<path d="M0 0 C1.98 0 3.96 0 6 0 C5.01 0.33 4.02 0.66 3 1 C3 3.64 3 6.28 3 9 C2.01 9 1.02 9 0 9 C0 6.03 0 3.06 0 0 Z " fill="#CDD4D9" transform="translate(40,116)"/>
<path d="M0 0 C0.33 0.66 0.66 1.32 1 2 C1.66 2 2.32 2 3 2 C2.34 3.32 1.68 4.64 1 6 C0.67 5.34 0.34 4.68 0 4 C-1.65 4.66 -3.3 5.32 -5 6 C-4.625 3.5625 -4.625 3.5625 -4 1 C-2 0 -2 0 0 0 Z " fill="#DD0D10" transform="translate(94,80)"/>
<path d="M0 0 C0.33 0 0.66 0 1 0 C1 2.64 1 5.28 1 8 C-1.64 8 -4.28 8 -7 8 C-6.34 6.68 -5.68 5.36 -5 4 C-4.01 4 -3.02 4 -2 4 C-2 4.99 -2 5.98 -2 7 C-1.34 7 -0.68 7 0 7 C0 4.69 0 2.38 0 0 Z " fill="#8A9AA4" transform="translate(153,117)"/>
<path d="M0 0 C1.55078125 1.17578125 1.55078125 1.17578125 3 3 C2.85546875 5.48046875 2.85546875 5.48046875 2.1875 8.1875 C1.86845703 9.53908203 1.86845703 9.53908203 1.54296875 10.91796875 C1.27419922 11.94857422 1.27419922 11.94857422 1 13 C0.67 13 0.34 13 0 13 C-0.19466332 11.20909747 -0.38051213 9.41723495 -0.5625 7.625 C-0.66691406 6.62726563 -0.77132812 5.62953125 -0.87890625 4.6015625 C-1 2 -1 2 0 0 Z " fill="#D60E11" transform="translate(119,76)"/>
<path d="M0 0 C1.67542976 0.28604898 3.34385343 0.61781233 5 1 C4.67 2.32 4.34 3.64 4 5 C2.68 5 1.36 5 0 5 C-0.5625 3.0625 -0.5625 3.0625 -1 1 C-0.67 0.67 -0.34 0.34 0 0 Z " fill="#9BA9B2" transform="translate(63,115)"/>
<path d="M0 0 C0.66 0 1.32 0 2 0 C2.33 2.64 2.66 5.28 3 8 C2.01 8 1.02 8 0 8 C0 5.36 0 2.72 0 0 Z " fill="#E6EAEC" transform="translate(129,116)"/>
<path d="M0 0 C-2.31 1.65 -4.62 3.3 -7 5 C-7.66 4.67 -8.32 4.34 -9 4 C-6.56225426 0.2214941 -6.56225426 0.2214941 -3.9375 -0.8125 C-2 -1 -2 -1 0 0 Z " fill="#6F222E" transform="translate(104,85)"/>
<path d="M0 0 C0.66 0.99 1.32 1.98 2 3 C2.99 3.33 3.98 3.66 5 4 C5 4.66 5 5.32 5 6 C3.35 6 1.7 6 0 6 C-1 3 -1 3 0 0 Z " fill="#D9DEE2" transform="translate(157,119)"/>
<path d="M0 0 C0.66 0 1.32 0 2 0 C1.67 1.32 1.34 2.64 1 4 C-0.98 4 -2.96 4 -5 4 C-5 3.34 -5 2.68 -5 2 C-3.35 2 -1.7 2 0 2 C0 1.34 0 0.68 0 0 Z " fill="#DEE3E6" transform="translate(81,121)"/>
<path d="M0 0 C1.32 0.33 2.64 0.66 4 1 C3.67 2.32 3.34 3.64 3 5 C2.01 4.67 1.02 4.34 0 4 C0 2.68 0 1.36 0 0 Z " fill="#2E4B5B" transform="translate(87,118)"/>
<path d="M0 0 C2.0625 0.4375 2.0625 0.4375 4 1 C4 2.32 4 3.64 4 5 C2.68 5 1.36 5 0 5 C-0.5625 3.0625 -0.5625 3.0625 -1 1 C-0.67 0.67 -0.34 0.34 0 0 Z " fill="#8C9CA6" transform="translate(121,115)"/>
</svg>
